<svg width="299" height="209" xmlns="http://www.w3.org/2000/svg" xmlns:xlink="http://www.w3.org/1999/xlink" overflow="hidden"><defs><clipPath id="clip0"><rect x="129" y="321" width="299" height="209"/></clipPath><clipPath id="clip1"><rect x="130" y="322" width="298" height="208"/></clipPath><clipPath id="clip2"><rect x="130" y="322" width="299" height="208"/></clipPath><clipPath id="clip3"><rect x="130" y="322" width="299" height="208"/></clipPath><clipPath id="clip4"><rect x="130" y="322" width="299" height="208"/></clipPath><clipPath id="clip5"><rect x="130" y="322" width="298" height="208"/></clipPath><clipPath id="clip6"><rect x="130" y="322" width="298" height="208"/></clipPath></defs><g clip-path="url(#clip0)" transform="translate(-129 -321)"><g clip-path="url(#clip1)"><g clip-path="url(#clip2)"><g clip-path="url(#clip3)"><g clip-path="url(#clip4)"><path d="M0 0 296.764 0 296.764 208 0 208Z" fill="#FFFFFF" fill-rule="nonzero" fill-opacity="1" transform="matrix(1.00416 0 0 1 130 322)"/></g><g clip-path="url(#clip5)"><path d="M144.846 130.714 406.013 130.714 406.013 303.229 144.846 303.229Z" fill="#FFFFCC" fill-rule="nonzero" fill-opacity="1" transform="matrix(1.00416 0 0 1 2.28891 208.95)"/></g><g clip-path="url(#clip6)"><path d="M144.846 130.714 406.013 130.714 406.013 303.229 144.846 303.229Z" stroke="#000000" stroke-width="3.53282" stroke-linecap="square" stroke-linejoin="miter" stroke-miterlimit="10" stroke-opacity="1" fill="none" fill-rule="nonzero" transform="matrix(1.00416 0 0 1 2.28891 208.95)"/></g><path d="M7.65898 0 7.65898-5.36141 2.29775-5.36141 2.29775-6.89306 7.65898-6.89306 7.65898-12.2545 9.19081-12.2545 9.19081-6.89306 14.5522-6.89306 14.5522-5.36141 9.19081-5.36141 9.19081 0ZM25.5956 0 25.5956-11.2402 27.6346-11.2402 27.6346 0ZM25.5956-13.2792 25.5956-15.3181 27.6346-15.3181 27.6346-13.2792ZM34.7038 0.258779C33.7724 0.258779 32.6406 0.0413928 31.3089-0.39338L31.3089-2.26666C32.6406-1.60425 33.7999-1.27305 34.7866-1.27305 35.3731-1.27305 35.8595-1.43173 36.2459-1.7491 36.6323-2.06658 36.8256-2.46338 36.8256-2.93948 36.8256-3.63638 36.2838-4.21253 35.2005-4.66792L34.0103-5.17505C32.2508-5.90647 31.3711-6.95872 31.3711-8.3318 31.3711-9.31158 31.7178-10.0827 32.4112-10.6451 33.1046-11.2074 34.0552-11.4886 35.2627-11.4886 35.8906-11.4886 36.6668-11.4023 37.5913-11.2298L38.0158-11.1469 38.0158-9.44959C36.8773-9.78768 35.9733-9.95673 35.304-9.95673 33.993-9.95673 33.3375-9.48062 33.3375-8.52841 33.3375-7.91428 33.8344-7.39679 34.828-6.97591L35.8111-6.56186C36.922-6.0927 37.7088-5.59763 38.1711-5.07666 38.6333-4.5557 38.8646-3.90536 38.8646-3.12566 38.8646-2.13895 38.4747-1.32822 37.6948-0.693493 36.9151-0.0586448 35.9182 0.258779 34.7038 0.258779ZM40.4895 3.5708 40.4895 2.03897 51.0879 2.03897 51.0879 3.5708ZM56.5009 0.258779C55.466 0.258779 54.6586-0.037919 54.079-0.631315 53.4994-1.22471 53.2096-2.04927 53.2096-3.105L53.2096-9.70837 51.8021-9.70837 51.8021-11.2402 53.2096-11.2402 53.2096-13.2792 55.2485-13.4758 55.2485-11.2402 58.188-11.2402 58.188-9.70837 55.2485-9.70837 55.2485-3.47771C55.2485-2.00793 55.8834-1.27305 57.1531-1.27305 57.4221-1.27305 57.75-1.31792 58.1363-1.40765L58.1363 0C57.5083 0.172519 56.9632 0.258779 56.5009 0.258779ZM61.0551 0 61.0551-11.2402 63.0941-11.2402 63.0941 0ZM61.0551-13.2792 61.0551-15.3181 63.0941-15.3181 63.0941-13.2792ZM67.1822 0 67.1822-11.2402 69.2212-11.2402 69.2212-9.12881C70.2148-10.702 71.4912-11.4886 73.0508-11.4886 74.5549-11.4886 75.5796-10.702 76.1247-9.12881 77.0907-10.7089 78.3465-11.499 79.8921-11.499 80.8857-11.499 81.6551-11.2074 82.2002-10.6243 82.7452-10.0412 83.0178-9.22531 83.0178-8.17654L83.0178 0 80.9685 0 80.9685-7.85576C80.9685-9.13911 80.4614-9.78079 79.4471-9.78079 78.3913-9.78079 77.284-9.03213 76.1247-7.5348L76.1247 0 74.0753 0 74.0753-7.85576C74.0753-9.14607 73.5577-9.79121 72.5228-9.79121 71.4948-9.79121 70.3943-9.03907 69.2212-7.5348L69.2212 0ZM95.2102-0.362291C93.8439 0.0517558 92.6744 0.258779 91.7016 0.258779 90.0456 0.258779 88.6948-0.291516 87.6495-1.39211 86.6041-2.49271 86.0814-3.91926 86.0814-5.67177 86.0814-7.37612 86.5419-8.77341 87.4631-9.86364 88.3843-10.9539 89.5625-11.499 90.9977-11.499 92.3569-11.499 93.4076-11.016 94.1493-10.05 94.891-9.08389 95.262-7.71073 95.262-5.93055L95.2516-5.29923 88.1619-5.29923C88.4585-2.6289 89.7661-1.29372 92.0846-1.29372 92.9333-1.29372 93.9751-1.52141 95.2102-1.97679ZM88.255-6.83106 93.2126-6.83106C93.2126-8.92178 92.4329-9.96715 90.8735-9.96715 89.3072-9.96715 88.4343-8.92178 88.255-6.83106ZM105.995 0 105.995-2.11139C105.167-0.531278 103.918 0.258779 102.248 0.258779 100.896 0.258779 99.8315-0.234579 99.0552-1.2213 98.279-2.20801 97.8909-3.55697 97.8909-5.26814 97.8909-7.13806 98.3308-8.64229 99.2104-9.78079 100.09-10.9193 101.248-11.4886 102.683-11.4886 104.015-11.4886 105.119-10.9779 105.995-9.95673L105.995-16.3428 108.044-16.3428 108.044 0ZM105.995-8.55949C104.939-9.49098 103.939-9.95673 102.993-9.95673 101.041-9.95673 100.064-8.46287 100.064-5.47517 100.064-2.84627 100.934-1.53183 102.673-1.53183 103.804-1.53183 104.912-2.14937 105.995-3.38444ZM116.521 0.258779C114.913 0.258779 113.63-0.274265 112.671-1.34035 111.712-2.40643 111.232-3.83299 111.232-5.62001 111.232-7.42788 111.713-8.85796 112.676-9.91027 113.638-10.9625 114.944-11.4886 116.593-11.4886 118.242-11.4886 119.548-10.9625 120.511-9.91027 121.473-8.85796 121.955-7.43482 121.955-5.64085 121.955-3.80543 121.472-2.36328 120.506-1.31439 119.54-0.26561 118.212 0.258779 116.521 0.258779ZM116.552-1.27305C118.712-1.27305 119.792-2.72898 119.792-5.64085 119.792-8.51811 118.726-9.95673 116.593-9.95673 114.468-9.95673 113.406-8.51115 113.406-5.62001 113.406-2.72204 114.454-1.27305 116.552-1.27305ZM132.17 0 132.17-2.11139C131.087-0.531278 129.773 0.258779 128.227 0.258779 127.247 0.258779 126.467-0.0499894 125.888-0.667526 125.308-1.28506 125.018-2.11828 125.018-3.16717L125.018-11.2402 127.057-11.2402 127.057-3.82958C127.057-2.98771 127.18-2.38912 127.425-2.03384 127.67-1.67844 128.079-1.50074 128.651-1.50074 129.893-1.50074 131.066-2.31841 132.17-3.95376L132.17-11.2402 134.209-11.2402 134.209 0ZM141.672 0.258779C140.637 0.258779 139.829-0.037919 139.25-0.631315 138.67-1.22471 138.38-2.04927 138.38-3.105L138.38-9.70837 136.973-9.70837 136.973-11.2402 138.38-11.2402 138.38-13.2792 140.419-13.4758 140.419-11.2402 143.359-11.2402 143.359-9.70837 140.419-9.70837 140.419-3.47771C140.419-2.00793 141.054-1.27305 142.324-1.27305 142.593-1.27305 142.921-1.31792 143.307-1.40765L143.307 0C142.679 0.172519 142.134 0.258779 141.672 0.258779ZM150.314 1.65601 150.314 3.06366C148.824 2.04927 147.642 0.671001 146.769-1.07115 145.896-2.81341 145.46-4.67127 145.46-6.64471 145.46-8.6112 145.896-10.4656 146.769-12.2078 147.642-13.9501 148.824-15.3284 150.314-16.3428L150.314-14.9352C149.3-13.8312 148.577-12.6444 148.146-11.3748 147.714-10.1051 147.499-8.52841 147.499-6.64471 147.499-4.75406 147.714-3.17394 148.146-1.90437 148.577-0.63479 149.3 0.552003 150.314 1.65601ZM151.846 1.65601 151.846 3.06366C153.336 2.04927 154.518 0.671001 155.391-1.07115 156.263-2.81341 156.7-4.67127 156.7-6.64471 156.7-8.6112 156.263-10.4656 155.391-12.2078 154.518-13.9501 153.336-15.3284 151.846-16.3428L151.846-14.9352C152.86-13.8312 153.583-12.6444 154.014-11.3748 154.445-10.1051 154.661-8.52841 154.661-6.64471 154.661-4.75406 154.445-3.17394 154.014-1.90437 153.583-0.63479 152.86 0.552003 151.846 1.65601ZM167.009 0 167.009-2.03897 169.048-2.03897 169.048 0ZM167.009-9.19081 167.009-11.2402 169.048-11.2402 169.048-9.19081ZM180.133 0.124179 180.133-16.3428 182.172-16.3428 182.172-9.12881C183.007-10.702 184.258-11.4886 185.929-11.4886 187.28-11.4886 188.345-10.9952 189.121-10.0085 189.898-9.02176 190.287-7.67281 190.287-5.96163 190.287-4.09865 189.847-2.59615 188.967-1.45411 188.086-0.312183 186.929 0.258779 185.494 0.258779 184.162 0.258779 183.055-0.251832 182.172-1.27305L181.923 0.124179ZM182.172-2.6807C183.221-1.74227 184.221-1.27305 185.173-1.27305 187.132-1.27305 188.112-2.76691 188.112-5.75461 188.112-8.39045 187.243-9.70837 185.505-9.70837 184.366-9.70837 183.254-9.09083 182.172-7.85576ZM197.873 0.258779C196.264 0.258779 194.982-0.274265 194.022-1.34035 193.063-2.40643 192.583-3.83299 192.583-5.62001 192.583-7.42788 193.065-8.85796 194.028-9.91027 194.99-10.9625 196.296-11.4886 197.946-11.4886 199.594-11.4886 200.899-10.9625 201.862-9.91027 202.825-8.85796 203.307-7.43482 203.307-5.64085 203.307-3.80543 202.823-2.36328 201.857-1.31439 200.892-0.26561 199.564 0.258779 197.873 0.258779ZM197.903-1.27305C200.064-1.27305 201.143-2.72898 201.143-5.64085 201.143-8.51811 200.078-9.95673 197.946-9.95673 195.819-9.95673 194.757-8.51115 194.757-5.62001 194.757-2.72204 195.807-1.27305 197.903-1.27305ZM210.893 0.258779C209.284 0.258779 208.002-0.274265 207.043-1.34035 206.084-2.40643 205.603-3.83299 205.603-5.62001 205.603-7.42788 206.085-8.85796 207.048-9.91027 208.011-10.9625 209.316-11.4886 210.966-11.4886 212.614-11.4886 213.919-10.9625 214.882-9.91027 215.845-8.85796 216.327-7.43482 216.327-5.64085 216.327-3.80543 215.843-2.36328 214.877-1.31439 213.912-0.26561 212.584 0.258779 210.893 0.258779ZM210.924-1.27305C213.084-1.27305 214.163-2.72898 214.163-5.64085 214.163-8.51811 213.098-9.95673 210.966-9.95673 208.841-9.95673 207.778-8.51115 207.778-5.62001 207.778-2.72204 208.827-1.27305 210.924-1.27305ZM219.514 0 219.514-16.3428 221.554-16.3428 221.554 0Z" fill="#000000" fill-rule="nonzero" fill-opacity="1" transform="matrix(1.00416 0 0 1 165.472 496.044)"/><path d="M7.65898 0 7.65898-5.36141 2.29775-5.36141 2.29775-6.89306 7.65898-6.89306 7.65898-12.2545 9.19081-12.2545 9.19081-6.89306 14.5522-6.89306 14.5522-5.36141 9.19081-5.36141 9.19081 0ZM25.5956 0 25.5956-11.2402 27.6346-11.2402 27.6346 0ZM25.5956-13.2792 25.5956-15.3181 27.6346-15.3181 27.6346-13.2792ZM34.7038 0.258779C33.7724 0.258779 32.6406 0.0413928 31.3089-0.39338L31.3089-2.26666C32.6406-1.60425 33.7999-1.27305 34.7866-1.27305 35.3731-1.27305 35.8595-1.43173 36.2459-1.7491 36.6323-2.06658 36.8256-2.46338 36.8256-2.93948 36.8256-3.63638 36.2838-4.21253 35.2005-4.66792L34.0103-5.17505C32.2508-5.90647 31.3711-6.95872 31.3711-8.3318 31.3711-9.31158 31.7178-10.0827 32.4112-10.6451 33.1046-11.2074 34.0552-11.4886 35.2627-11.4886 35.8906-11.4886 36.6668-11.4023 37.5913-11.2298L38.0158-11.1469 38.0158-9.44959C36.8773-9.78768 35.9733-9.95673 35.304-9.95673 33.993-9.95673 33.3375-9.48062 33.3375-8.52841 33.3375-7.91428 33.8344-7.39679 34.828-6.97591L35.8111-6.56186C36.922-6.0927 37.7088-5.59763 38.1711-5.07666 38.6333-4.5557 38.8646-3.90536 38.8646-3.12566 38.8646-2.13895 38.4747-1.32822 37.6948-0.693493 36.9151-0.0586448 35.9182 0.258779 34.7038 0.258779ZM40.4895 3.5708 40.4895 2.03897 51.0879 2.03897 51.0879 3.5708ZM56.1077 0.258779C55.1763 0.258779 54.0446 0.0413928 52.7129-0.39338L52.7129-2.26666C54.0446-1.60425 55.2039-1.27305 56.1904-1.27305 56.777-1.27305 57.2635-1.43173 57.6498-1.7491 58.0361-2.06658 58.2294-2.46338 58.2294-2.93948 58.2294-3.63638 57.6878-4.21253 56.6044-4.66792L55.4142-5.17505C53.6547-5.90647 52.775-6.95872 52.775-8.3318 52.775-9.31158 53.1218-10.0827 53.8151-10.6451 54.5086-11.2074 55.4591-11.4886 56.6666-11.4886 57.2946-11.4886 58.0707-11.4023 58.9953-11.2298L59.4197-11.1469 59.4197-9.44959C58.2813-9.78768 57.3772-9.95673 56.708-9.95673 55.3969-9.95673 54.7414-9.48062 54.7414-8.52841 54.7414-7.91428 55.2383-7.39679 56.2319-6.97591L57.2151-6.56186C58.326-6.0927 59.1127-5.59763 59.575-5.07666 60.0373-4.5557 60.2683-3.90536 60.2683-3.12566 60.2683-2.13895 59.8785-1.32822 59.0988-0.693493 58.3191-0.0586448 57.3221 0.258779 56.1077 0.258779ZM67.3064 0.258779C66.2715 0.258779 65.4641-0.037919 64.8845-0.631315 64.3049-1.22471 64.0151-2.04927 64.0151-3.105L64.0151-9.70837 62.6076-9.70837 62.6076-11.2402 64.0151-11.2402 64.0151-13.2792 66.054-13.4758 66.054-11.2402 68.9935-11.2402 68.9935-9.70837 66.054-9.70837 66.054-3.47771C66.054-2.00793 66.6889-1.27305 67.9586-1.27305 68.2276-1.27305 68.5554-1.31792 68.9418-1.40765L68.9418 0C68.3138 0.172519 67.7687 0.258779 67.3064 0.258779ZM77.6565-1.42832C76.4352-0.303588 75.2588 0.258779 74.1271 0.258779 73.1956 0.258779 72.4228-0.0327374 71.8086-0.615771 71.1946-1.19892 70.8876-1.93551 70.8876-2.82555 70.8876-4.05379 71.4034-4.99735 72.4348-5.65622 73.4664-6.31522 74.9447-6.64471 76.8699-6.64471L77.3564-6.64471 77.3564-8.0006C77.3564-9.30469 76.6871-9.95673 75.3484-9.95673 74.2721-9.95673 73.1094-9.62552 71.8604-8.96312L71.8604-10.6502C73.2336-11.2091 74.5204-11.4886 75.7211-11.4886 76.9768-11.4886 77.9031-11.2056 78.5-10.6398 79.0968-10.0741 79.3954-9.19434 79.3954-8.0006L79.3954-2.90839C79.3954-1.74221 79.7541-1.15912 80.4716-1.15912 80.5614-1.15912 80.6924-1.17295 80.865-1.20063L81.0099-0.0724228C80.5476 0.148378 80.0371 0.258779 79.478 0.258779 78.5258 0.258779 77.9187-0.303588 77.6565-1.42832ZM77.3564-2.53568 77.3564-5.44408 76.6732-5.46492C75.5554-5.46492 74.6515-5.25272 73.9615-4.82831 73.2716-4.40389 72.9266-3.84671 72.9266-3.15675 72.9266-2.66687 73.099-2.25288 73.444-1.91479 73.789-1.5767 74.2099-1.40765 74.7068-1.40765 75.5555-1.40765 76.4388-1.78367 77.3564-2.53568ZM83.5664 0 83.5664-11.2402 85.6054-11.2402 85.6054-9.12881C86.4126-10.702 87.5857-11.4886 89.1244-11.4886 89.3314-11.4886 89.5487-11.4713 89.7764-11.4368L89.7764-9.53243C89.4245-9.64972 89.114-9.70837 88.845-9.70837 87.5546-9.70837 86.4748-8.94245 85.6054-7.41062L85.6054 0ZM95.6138 0.258779C94.5789 0.258779 93.7715-0.037919 93.1919-0.631315 92.6124-1.22471 92.3225-2.04927 92.3225-3.105L92.3225-9.70837 90.915-9.70837 90.915-11.2402 92.3225-11.2402 92.3225-13.2792 94.3615-13.4758 94.3615-11.2402 97.3009-11.2402 97.3009-9.70837 94.3615-9.70837 94.3615-3.47771C94.3615-2.00793 94.9963-1.27305 96.2658-1.27305 96.535-1.27305 96.8629-1.31792 97.2492-1.40765L97.2492 0C96.6212 0.172519 96.0761 0.258779 95.6138 0.258779ZM108.407-0.362291C107.04 0.0517558 105.871 0.258779 104.898 0.258779 103.242 0.258779 101.891-0.291516 100.846-1.39211 99.8004-2.49271 99.2777-3.91926 99.2777-5.67177 99.2777-7.37612 99.7384-8.77341 100.66-9.86364 101.581-10.9539 102.759-11.499 104.194-11.499 105.553-11.499 106.604-11.016 107.346-10.05 108.087-9.08389 108.458-7.71073 108.458-5.93055L108.448-5.29923 101.358-5.29923C101.655-2.6289 102.962-1.29372 105.281-1.29372 106.13-1.29372 107.171-1.52141 108.407-1.97679ZM101.451-6.83106 106.409-6.83106C106.409-8.92178 105.629-9.96715 104.07-9.96715 102.504-9.96715 101.631-8.92178 101.451-6.83106ZM119.191 0 119.191-2.11139C118.363-0.531278 117.114 0.258779 115.445 0.258779 114.092 0.258779 113.028-0.234579 112.252-1.2213 111.475-2.20801 111.087-3.55697 111.087-5.26814 111.087-7.13806 111.527-8.64229 112.407-9.78079 113.287-10.9193 114.444-11.4886 115.879-11.4886 117.211-11.4886 118.315-10.9779 119.191-9.95673L119.191-16.3428 121.241-16.3428 121.241 0ZM119.191-8.55949C118.136-9.49098 117.135-9.95673 116.19-9.95673 114.237-9.95673 113.261-8.46287 113.261-5.47517 113.261-2.84627 114.13-1.53183 115.869-1.53183 117-1.53183 118.108-2.14937 119.191-3.38444ZM129.407 1.65601 129.407 3.06366C127.916 2.04927 126.735 0.671001 125.862-1.07115 124.989-2.81341 124.553-4.67127 124.553-6.64471 124.553-8.6112 124.989-10.4656 125.862-12.2078 126.735-13.9501 127.916-15.3284 129.407-16.3428L129.407-14.9352C128.392-13.8312 127.67-12.6444 127.238-11.3748 126.807-10.1051 126.592-8.52841 126.592-6.64471 126.592-4.75406 126.807-3.17394 127.238-1.90437 127.67-0.63479 128.392 0.552003 129.407 1.65601ZM130.939 1.65601 130.939 3.06366C132.429 2.04927 133.611 0.671001 134.484-1.07115 135.356-2.81341 135.793-4.67127 135.793-6.64471 135.793-8.6112 135.356-10.4656 134.484-12.2078 133.611-13.9501 132.429-15.3284 130.939-16.3428L130.939-14.9352C131.953-13.8312 132.676-12.6444 133.107-11.3748 133.538-10.1051 133.754-8.52841 133.754-6.64471 133.754-4.75406 133.538-3.17394 133.107-1.90437 132.676-0.63479 131.953 0.552003 130.939 1.65601ZM146.101 0 146.101-2.03897 148.14-2.03897 148.14 0ZM146.101-9.19081 146.101-11.2402 148.14-11.2402 148.14-9.19081ZM159.225 0.124179 159.225-16.3428 161.264-16.3428 161.264-9.12881C162.099-10.702 163.352-11.4886 165.021-11.4886 166.374-11.4886 167.438-10.9952 168.214-10.0085 168.991-9.02176 169.379-7.67281 169.379-5.96163 169.379-4.09865 168.939-2.59615 168.059-1.45411 167.179-0.312183 166.022 0.258779 164.587 0.258779 163.255 0.258779 162.147-0.251832 161.264-1.27305L161.016 0.124179ZM161.264-2.6807C162.313-1.74227 163.313-1.27305 164.266-1.27305 166.225-1.27305 167.205-2.76691 167.205-5.75461 167.205-8.39045 166.336-9.70837 164.597-9.70837 163.458-9.70837 162.348-9.09083 161.264-7.85576ZM176.966 0.258779C175.358 0.258779 174.074-0.274265 173.115-1.34035 172.156-2.40643 171.677-3.83299 171.677-5.62001 171.677-7.42788 172.158-8.85796 173.12-9.91027 174.083-10.9625 175.389-11.4886 177.038-11.4886 178.687-11.4886 179.992-10.9625 180.955-9.91027 181.917-8.85796 182.4-7.43482 182.4-5.64085 182.4-3.80543 181.916-2.36328 180.949-1.31439 179.985-0.26561 178.656 0.258779 176.966 0.258779ZM176.996-1.27305C179.156-1.27305 180.236-2.72898 180.236-5.64085 180.236-8.51811 179.171-9.95673 177.038-9.95673 174.913-9.95673 173.85-8.51115 173.85-5.62001 173.85-2.72204 174.899-1.27305 176.996-1.27305ZM189.986 0.258779C188.379 0.258779 187.095-0.274265 186.135-1.34035 185.176-2.40643 184.698-3.83299 184.698-5.62001 184.698-7.42788 185.178-8.85796 186.141-9.91027 187.103-10.9625 188.409-11.4886 190.059-11.4886 191.707-11.4886 193.014-10.9625 193.975-9.91027 194.938-8.85796 195.42-7.43482 195.42-5.64085 195.42-3.80543 194.936-2.36328 193.971-1.31439 193.005-0.26561 191.677 0.258779 189.986 0.258779ZM190.016-1.27305C192.177-1.27305 193.256-2.72898 193.256-5.64085 193.256-8.51811 192.191-9.95673 190.059-9.95673 187.934-9.95673 186.87-8.51115 186.87-5.62001 186.87-2.72204 187.92-1.27305 190.016-1.27305ZM198.608 0 198.608-16.3428 200.647-16.3428 200.647 0Z" fill="#000000" fill-rule="nonzero" fill-opacity="1" transform="matrix(1.00416 0 0 1 165.472 471.079)"/><path d="M7.65898 0 7.65898-5.36141 2.29775-5.36141 2.29775-6.89306 7.65898-6.89306 7.65898-12.2545 9.19081-12.2545 9.19081-6.89306 14.5522-6.89306 14.5522-5.36141 9.19081-5.36141 9.19081 0ZM28.5765 0.258779C27.645 0.258779 26.5135 0.0413928 25.1818-0.39338L25.1818-2.26666C26.5135-1.60425 27.6726-1.27305 28.6593-1.27305 29.2459-1.27305 29.7324-1.43173 30.1187-1.7491 30.505-2.06658 30.6983-2.46338 30.6983-2.93948 30.6983-3.63638 30.1567-4.21253 29.0733-4.66792L27.8831-5.17505C26.1236-5.90647 25.2438-6.95872 25.2438-8.3318 25.2438-9.31158 25.5905-10.0827 26.284-10.6451 26.9775-11.2074 27.928-11.4886 29.1353-11.4886 29.7633-11.4886 30.5395-11.4023 31.4642-11.2298L31.8885-11.1469 31.8885-9.44959C30.75-9.78768 29.8461-9.95673 29.1769-9.95673 27.8658-9.95673 27.2103-9.48062 27.2103-8.52841 27.2103-7.91428 27.707-7.39679 28.7006-6.97591L29.684-6.56186C30.7949-6.0927 31.5815-5.59763 32.0437-5.07666 32.506-4.5557 32.7372-3.90536 32.7372-3.12566 32.7372-2.13895 32.3474-1.32822 31.5677-0.693493 30.788-0.0586448 29.7909 0.258779 28.5765 0.258779ZM39.7753 0.258779C38.7404 0.258779 37.933-0.037919 37.3534-0.631315 36.7738-1.22471 36.484-2.04927 36.484-3.105L36.484-9.70837 35.0763-9.70837 35.0763-11.2402 36.484-11.2402 36.484-13.2792 38.5229-13.4758 38.5229-11.2402 41.4624-11.2402 41.4624-9.70837 38.5229-9.70837 38.5229-3.47771C38.5229-2.00793 39.1578-1.27305 40.4273-1.27305 40.6963-1.27305 41.0242-1.31792 41.4107-1.40765L41.4107 0C40.7827 0.172519 40.2376 0.258779 39.7753 0.258779ZM48.728 0.258779C47.1204 0.258779 45.8369-0.274265 44.8778-1.34035 43.9188-2.40643 43.4392-3.83299 43.4392-5.62001 43.4392-7.42788 43.9206-8.85796 44.8831-9.91027 45.8456-10.9625 47.1515-11.4886 48.8006-11.4886 50.4496-11.4886 51.7555-10.9625 52.718-9.91027 53.6805-8.85796 54.1618-7.43482 54.1618-5.64085 54.1618-3.80543 53.6789-2.36328 52.7129-1.31439 51.7468-0.26561 50.4186 0.258779 48.728 0.258779ZM48.7591-1.27305C50.9189-1.27305 51.9987-2.72898 51.9987-5.64085 51.9987-8.51811 50.9327-9.95673 48.8006-9.95673 46.6754-9.95673 45.6128-8.51115 45.6128-5.62001 45.6128-2.72204 46.6615-1.27305 48.7591-1.27305ZM57.3497 4.08836 57.3497-11.2402 59.3887-11.2402 59.3887-9.12881C60.2236-10.702 61.4758-11.4886 63.1456-11.4886 64.4982-11.4886 65.5624-10.9952 66.3388-10.0085 67.1149-9.02176 67.503-7.67281 67.503-5.96163 67.503-4.09865 67.0632-2.59615 66.1835-1.45411 65.3037-0.312183 64.1463 0.258779 62.7111 0.258779 61.3794 0.258779 60.2719-0.251832 59.3887-1.27305L59.3887 4.08836ZM59.3887-2.6807C60.4374-1.74227 61.4379-1.27305 62.3901-1.27305 64.3498-1.27305 65.3296-2.76691 65.3296-5.75461 65.3296-8.39045 64.4602-9.70837 62.7213-9.70837 61.5829-9.70837 60.472-9.09083 59.3887-7.85576ZM74.7792 1.65601 74.7792 3.06366C73.2889 2.04927 72.1072 0.671001 71.2342-1.07115 70.3614-2.81341 69.9249-4.67127 69.9249-6.64471 69.9249-8.6112 70.3614-10.4656 71.2342-12.2078 72.1072-13.9501 73.2889-15.3284 74.7792-16.3428L74.7792-14.9352C73.7649-13.8312 73.0421-12.6444 72.6108-11.3748 72.1796-10.1051 71.9639-8.52841 71.9639-6.64471 71.9639-4.75406 72.1796-3.17394 72.6108-1.90437 73.0421-0.63479 73.7649 0.552003 74.7792 1.65601ZM76.311 1.65601 76.311 3.06366C77.8014 2.04927 78.9831 0.671001 79.8559-1.07115 80.7287-2.81341 81.1651-4.67127 81.1651-6.64471 81.1651-8.6112 80.7287-10.4656 79.8559-12.2078 78.9831-13.9501 77.8014-15.3284 76.311-16.3428L76.311-14.9352C77.3253-13.8312 78.0481-12.6444 78.4793-11.3748 78.9105-10.1051 79.1262-8.52841 79.1262-6.64471 79.1262-4.75406 78.9105-3.17394 78.4793-1.90437 78.0481-0.63479 77.3253 0.552003 76.311 1.65601ZM91.4739 0 91.4739-2.03897 93.5129-2.03897 93.5129 0ZM91.4739-9.19081 91.4739-11.2402 93.5129-11.2402 93.5129-9.19081ZM106.926 0 102.745-11.2402 104.784-11.2402 108.055-2.49435 111.501-11.2402 113.406-11.2402 108.965 0ZM119.968 0.258779C118.36 0.258779 117.076-0.274265 116.117-1.34035 115.158-2.40643 114.679-3.83299 114.679-5.62001 114.679-7.42788 115.16-8.85796 116.123-9.91027 117.085-10.9625 118.391-11.4886 120.04-11.4886 121.689-11.4886 122.995-10.9625 123.957-9.91027 124.92-8.85796 125.401-7.43482 125.401-5.64085 125.401-3.80543 124.918-2.36328 123.952-1.31439 122.986-0.26561 121.658 0.258779 119.968 0.258779ZM119.999-1.27305C122.158-1.27305 123.238-2.72898 123.238-5.64085 123.238-8.51811 122.172-9.95673 120.04-9.95673 117.915-9.95673 116.852-8.51115 116.852-5.62001 116.852-2.72204 117.901-1.27305 119.999-1.27305ZM128.589 0 128.589-11.2402 130.628-11.2402 130.628 0ZM128.589-13.2792 128.589-15.3181 130.628-15.3181 130.628-13.2792ZM141.93 0 141.93-2.11139C141.102-0.531278 139.853 0.258779 138.184 0.258779 136.831 0.258779 135.767-0.234579 134.991-1.2213 134.214-2.20801 133.826-3.55697 133.826-5.26814 133.826-7.13806 134.266-8.64229 135.146-9.78079 136.026-10.9193 137.183-11.4886 138.618-11.4886 139.95-11.4886 141.054-10.9779 141.93-9.95673L141.93-16.3428 143.98-16.3428 143.98 0ZM141.93-8.55949C140.875-9.49098 139.874-9.95673 138.929-9.95673 136.976-9.95673 136-8.46287 136-5.47517 136-2.84627 136.869-1.53183 138.608-1.53183 139.74-1.53183 140.847-2.14937 141.93-3.38444Z" fill="#000000" fill-rule="nonzero" fill-opacity="1" transform="matrix(1.00416 0 0 1 165.472 446.115)"/><path d="M7.65898 0 7.65898-5.36141 2.29775-5.36141 2.29775-6.89306 7.65898-6.89306 7.65898-12.2545 9.19081-12.2545 9.19081-6.89306 14.5522-6.89306 14.5522-5.36141 9.19081-5.36141 9.19081 0ZM28.5765 0.258779C27.645 0.258779 26.5135 0.0413928 25.1818-0.39338L25.1818-2.26666C26.5135-1.60425 27.6726-1.27305 28.6593-1.27305 29.2459-1.27305 29.7324-1.43173 30.1187-1.7491 30.505-2.06658 30.6983-2.46338 30.6983-2.93948 30.6983-3.63638 30.1567-4.21253 29.0733-4.66792L27.8831-5.17505C26.1236-5.90647 25.2438-6.95872 25.2438-8.3318 25.2438-9.31158 25.5905-10.0827 26.284-10.6451 26.9775-11.2074 27.928-11.4886 29.1353-11.4886 29.7633-11.4886 30.5395-11.4023 31.4642-11.2298L31.8885-11.1469 31.8885-9.44959C30.75-9.78768 29.8461-9.95673 29.1769-9.95673 27.8658-9.95673 27.2103-9.48062 27.2103-8.52841 27.2103-7.91428 27.707-7.39679 28.7006-6.97591L29.684-6.56186C30.7949-6.0927 31.5815-5.59763 32.0437-5.07666 32.506-4.5557 32.7372-3.90536 32.7372-3.12566 32.7372-2.13895 32.3474-1.32822 31.5677-0.693493 30.788-0.0586448 29.7909 0.258779 28.5765 0.258779ZM39.7753 0.258779C38.7404 0.258779 37.933-0.037919 37.3534-0.631315 36.7738-1.22471 36.484-2.04927 36.484-3.105L36.484-9.70837 35.0763-9.70837 35.0763-11.2402 36.484-11.2402 36.484-13.2792 38.5229-13.4758 38.5229-11.2402 41.4624-11.2402 41.4624-9.70837 38.5229-9.70837 38.5229-3.47771C38.5229-2.00793 39.1578-1.27305 40.4273-1.27305 40.6963-1.27305 41.0242-1.31792 41.4107-1.40765L41.4107 0C40.7827 0.172519 40.2376 0.258779 39.7753 0.258779ZM50.1254-1.42832C48.9039-0.303588 47.7275 0.258779 46.596 0.258779 45.6645 0.258779 44.8917-0.0327374 44.2775-0.615771 43.6634-1.19892 43.3564-1.93551 43.3564-2.82555 43.3564-4.05379 43.8722-4.99735 44.9037-5.65622 45.9353-6.31522 47.4136-6.64471 49.3387-6.64471L49.8251-6.64471 49.8251-8.0006C49.8251-9.30469 49.1558-9.95673 47.8173-9.95673 46.7408-9.95673 45.5782-9.62552 44.3293-8.96312L44.3293-10.6502C45.7023-11.2091 46.9892-11.4886 48.1898-11.4886 49.4457-11.4886 50.372-11.2056 50.9689-10.6398 51.5658-10.0741 51.8641-9.19434 51.8641-8.0006L51.8641-2.90839C51.8641-1.74221 52.2229-1.15912 52.9406-1.15912 53.0303-1.15912 53.1614-1.17295 53.3339-1.20063L53.4788-0.0724228C53.0165 0.148378 52.5058 0.258779 51.9469 0.258779 50.9947 0.258779 50.3876-0.303588 50.1254-1.42832ZM49.8251-2.53568 49.8251-5.44408 49.1421-5.46492C48.0243-5.46492 47.1204-5.25272 46.4304-4.82831 45.7403-4.40389 45.3953-3.84671 45.3953-3.15675 45.3953-2.66687 45.5679-2.25288 45.9129-1.91479 46.2579-1.5767 46.6788-1.40765 47.1755-1.40765 48.0243-1.40765 48.9075-1.78367 49.8251-2.53568ZM56.0353 0 56.0353-11.2402 58.0743-11.2402 58.0743-9.12881C58.8815-10.702 60.0544-11.4886 61.5931-11.4886 61.8002-11.4886 62.0176-11.4713 62.2453-11.4368L62.2453-9.53243C61.8934-9.64972 61.5829-9.70837 61.3137-9.70837 60.0233-9.70837 58.9435-8.94245 58.0743-7.41062L58.0743 0ZM68.0827 0.258779C67.0478 0.258779 66.2404-0.037919 65.6608-0.631315 65.0813-1.22471 64.7914-2.04927 64.7914-3.105L64.7914-9.70837 63.3837-9.70837 63.3837-11.2402 64.7914-11.2402 64.7914-13.2792 66.8304-13.4758 66.8304-11.2402 69.7697-11.2402 69.7697-9.70837 66.8304-9.70837 66.8304-3.47771C66.8304-2.00793 67.4652-1.27305 68.7347-1.27305 69.0038-1.27305 69.3316-1.31792 69.7181-1.40765L69.7181 0C69.0901 0.172519 68.545 0.258779 68.0827 0.258779ZM76.7249 1.65601 76.7249 3.06366C75.2346 2.04927 74.0529 0.671001 73.1801-1.07115 72.3073-2.81341 71.8708-4.67127 71.8708-6.64471 71.8708-8.6112 72.3073-10.4656 73.1801-12.2078 74.0529-13.9501 75.2346-15.3284 76.7249-16.3428L76.7249-14.9352C75.7106-13.8312 74.9878-12.6444 74.5566-11.3748 74.1255-10.1051 73.9098-8.52841 73.9098-6.64471 73.9098-4.75406 74.1255-3.17394 74.5566-1.90437 74.9878-0.63479 75.7106 0.552003 76.7249 1.65601ZM78.2567 1.65601 78.2567 3.06366C79.7472 2.04927 80.929 0.671001 81.8018-1.07115 82.6745-2.81341 83.111-4.67127 83.111-6.64471 83.111-8.6112 82.6745-10.4656 81.8018-12.2078 80.929-13.9501 79.7472-15.3284 78.2567-16.3428L78.2567-14.9352C79.2712-13.8312 79.994-12.6444 80.4252-11.3748 80.8564-10.1051 81.072-8.52841 81.072-6.64471 81.072-4.75406 80.8564-3.17394 80.4252-1.90437 79.994-0.63479 79.2712 0.552003 78.2567 1.65601ZM93.4196 0 93.4196-2.03897 95.4586-2.03897 95.4586 0ZM93.4196-9.19081 93.4196-11.2402 95.4586-11.2402 95.4586-9.19081ZM108.872 0 104.691-11.2402 106.73-11.2402 110-2.49435 113.447-11.2402 115.351-11.2402 110.911 0ZM121.913 0.258779C120.306 0.258779 119.022-0.274265 118.063-1.34035 117.104-2.40643 116.624-3.83299 116.624-5.62001 116.624-7.42788 117.106-8.85796 118.068-9.91027 119.031-10.9625 120.337-11.4886 121.986-11.4886 123.635-11.4886 124.941-10.9625 125.903-9.91027 126.866-8.85796 127.347-7.43482 127.347-5.64085 127.347-3.80543 126.864-2.36328 125.898-1.31439 124.932-0.26561 123.604 0.258779 121.913 0.258779ZM121.944-1.27305C124.104-1.27305 125.184-2.72898 125.184-5.64085 125.184-8.51811 124.118-9.95673 121.986-9.95673 119.861-9.95673 118.798-8.51115 118.798-5.62001 118.798-2.72204 119.847-1.27305 121.944-1.27305ZM130.535 0 130.535-11.2402 132.574-11.2402 132.574 0ZM130.535-13.2792 130.535-15.3181 132.574-15.3181 132.574-13.2792ZM143.876 0 143.876-2.11139C143.048-0.531278 141.799 0.258779 140.13 0.258779 138.777 0.258779 137.713-0.234579 136.937-1.2213 136.16-2.20801 135.772-3.55697 135.772-5.26814 135.772-7.13806 136.212-8.64229 137.092-9.78079 137.971-10.9193 139.129-11.4886 140.564-11.4886 141.896-11.4886 143-10.9779 143.876-9.95673L143.876-16.3428 145.925-16.3428 145.925 0ZM143.876-8.55949C142.82-9.49098 141.82-9.95673 140.875-9.95673 138.922-9.95673 137.946-8.46287 137.946-5.47517 137.946-2.84627 138.815-1.53183 140.554-1.53183 141.685-1.53183 142.793-2.14937 143.876-3.38444Z" fill="#000000" fill-rule="nonzero" fill-opacity="1" transform="matrix(1.00416 0 0 1 165.472 421.151)"/><path d="M144.846 183.942 406.013 183.942" stroke="#000000" stroke-width="1.76641" stroke-linecap="square" stroke-linejoin="miter" stroke-miterlimit="10" stroke-opacity="1" fill="none" fill-rule="nonzero" transform="matrix(1.00416 0 0 1 2.28571 208.947)"/><path d="M144.846 169.81 406.013 169.81" stroke="#000000" stroke-width="1.76641" stroke-linecap="square" stroke-linejoin="miter" stroke-miterlimit="10" stroke-opacity="1" fill="none" fill-rule="nonzero" transform="matrix(1.00416 0 0 1 2.28571 208.947)"/><path d="M7.77291-0.0621776C7.04149 0.151793 6.46536 0.258779 6.04448 0.258779 3.38792 0.258779 2.05963-0.983242 2.05963-3.46729L2.05963-9.44959 0.786582-9.44959 0.786582-11.3644 2.05963-11.3644 2.05963-13.2792 5.1233-13.631 5.1233-11.3644 7.55547-11.3644 7.55547-9.44959 5.1233-9.44959 5.1233-3.87091C5.1233-2.47709 5.69256-1.78019 6.83106-1.78019 7.0932-1.78019 7.40714-1.82846 7.77291-1.92503ZM10.5054 0 10.5054-11.3644 13.5689-11.3644 13.5689 0ZM10.5054-13.2792 10.5054-15.8355 13.5689-15.8355 13.5689-13.2792ZM17.3984 0 17.3984-11.3644 20.3379-11.3644 20.3379-9.2219C21.2349-10.8227 22.5113-11.6232 24.1673-11.6232 25.023-11.6232 25.7269-11.4127 26.2789-10.9918 26.8309-10.5709 27.169-9.98087 27.2932-9.2219 28.3557-10.8227 29.6391-11.6232 31.1434-11.6232 33.2202-11.6232 34.2586-10.4778 34.2586-8.18696L34.2586 0 31.3193 0 31.3193-7.18293C31.3193-8.52846 30.8708-9.20123 29.9739-9.20123 29.0562-9.20123 28.1626-8.53883 27.2932-7.21402L27.2932 0 24.3537 0 24.3537-7.18293C24.3537-8.53529 23.9017-9.21148 22.9978-9.21148 22.0939-9.21148 21.2073-8.54566 20.3379-7.21402L20.3379 0ZM47.2066-0.382958C45.7507 0.0448668 44.3708 0.258779 43.0667 0.258779 41.169 0.258779 39.6718-0.279446 38.5747-1.3559 37.4776-2.43222 36.9289-3.90195 36.9289-5.76503 36.9289-7.5245 37.4309-8.94069 38.435-10.0136 39.4388-11.0866 40.7654-11.6232 42.4145-11.6232 44.0774-11.6232 45.2918-11.0988 46.0577-10.05 46.8236-9.0011 47.2066-7.34161 47.2066-5.07154L40.1583-5.07154C40.3653-2.90486 41.5555-1.82152 43.7291-1.82152 44.7571-1.82152 45.9162-2.05958 47.2066-2.53568ZM40.1168-6.79997 44.1947-6.79997C44.1947-8.73891 43.5703-9.70837 42.3214-9.70837 41.0519-9.70837 40.3169-8.73891 40.1168-6.79997ZM50.3738 0 50.3738-11.3644 53.4374-11.3644 53.4374-9.2219C54.2309-10.8227 55.4384-11.6232 57.0598-11.6232 57.2531-11.6232 57.4428-11.6024 57.6291-11.561L57.6291-8.82852C57.1944-8.98727 56.7908-9.06663 56.4183-9.06663 55.1968-9.06663 54.2032-8.44909 53.4374-7.21402L53.4374 0Z" fill="#000000" fill-rule="nonzero" fill-opacity="1" transform="matrix(1.00416 0 0 1 249.402 367.924)"/></g></g></g></g></svg>